<svg xmlns="http://www.w3.org/2000/svg" xmlns:xlink="http://www.w3.org/1999/xlink" style="isolation:isolate" width="96" height="96"><rect id="backgroundrect" width="100%" height="100%" x="0" y="0" fill="none" stroke="none"/><defs><clipPath id="_clipPath_Nhccb2XrstIuAsFZgIvTdQ0p2ro2hMdS"><rect width="96" height="96" id="svg_1"/></clipPath></defs><g class="currentLayer" style=""><title>Layer 1</title><g clip-path="url(#_clipPath_Nhccb2XrstIuAsFZgIvTdQ0p2ro2hMdS)" id="svg_2" class="" fill="#919191" fill-opacity="1"><g id="svg_3" fill="#919191" fill-opacity="1"><g id="svg_4" fill="#919191" fill-opacity="1"><g id="svg_5" fill="#919191" fill-opacity="1"><g id="svg_6" fill="#919191" fill-opacity="1"><g style="opacity:0.6;" id="svg_7" fill="#919191" fill-opacity="1"><g opacity="0.6" id="svg_8" fill="#919191" fill-opacity="1"><path d=" M 39.091 37 L 25 37 L 25 30.5 C 25 28.668 26.6 27 28.357 27 L 38.993 27 C 40.96 27 42.802 27.854 43.841 29.238 L 47.298 31.994 L 43.795 34.829 C 42.785 36.171 40.999 37 39.091 37 Z " fill="#919191" id="svg_9" fill-opacity="1"/></g></g><path d=" M 67.75 69 L 28.25 69 C 26.458 69 25 67.542 25 65.75 L 25 36.875 C 25 35.841 25.841 35 26.875 35 L 35.515 35 C 37.646 35 40.789 34.559 41.311 34.26 C 41.913 33.774 43.028 32.875 43.752 32.289 C 44.787 31.452 47.37 30.999 49.276 30.999 L 67.792 30.999 C 69.561 31 71 32.439 71 34.208 L 71 65.75 C 71 67.542 69.542 69 67.75 69 Z  M 27 37 L 27 65.75 C 27 66.439 27.561 67 28.25 67 L 67.75 67 C 68.439 67 69 66.439 69 65.75 L 69 34.208 C 69 33.542 68.458 33 67.792 33 L 49.276 33 C 47.309 33 45.435 33.5 45.01 33.844 C 44.283 34.432 43.165 35.333 42.525 35.846 C 41.433 36.724 36.744 37 35.515 37 L 27 37 L 27 37 Z " fill="#919191" id="svg_10" fill-opacity="1"/></g></g></g><g style="opacity:0.6;" id="svg_11" fill="#919191" fill-opacity="1"><g opacity="0.6" id="svg_12" fill="#919191" fill-opacity="1"><path d=" M 40.67 62.345 C 39.863 62.345 39.453 61.848 39.453 60.869 L 39.453 58.212 L 37.783 58.212 L 37.783 60.869 C 37.783 61.233 37.783 62.345 36.594 62.345 C 35.406 62.345 35.406 61.233 35.406 60.869 L 35.406 58.179 C 34.302 58.149 33.368 57.922 33.368 56.212 L 33.368 47.739 L 43.897 47.739 L 43.897 56.213 C 43.897 57.821 42.779 58.101 41.859 58.16 L 41.859 60.869 C 41.859 61.233 41.859 62.345 40.67 62.345 Z  M 40.53 61.308 C 40.531 61.308 40.569 61.326 40.67 61.326 C 40.769 61.326 40.802 61.309 40.802 61.309 C 40.809 61.293 40.84 61.198 40.84 60.869 L 40.84 57.168 L 41.339 57.159 C 42.758 57.132 42.878 56.905 42.878 56.212 L 42.878 48.758 L 34.387 48.758 L 34.387 56.213 C 34.387 57.119 34.458 57.164 35.916 57.166 L 36.425 57.166 L 36.425 60.869 C 36.425 61.186 36.453 61.285 36.472 61.316 C 36.478 61.308 36.514 61.326 36.594 61.326 C 36.694 61.326 36.726 61.309 36.727 61.309 C 36.733 61.293 36.764 61.198 36.764 60.869 L 36.764 57.194 L 40.472 57.194 L 40.472 60.869 C 40.472 61.219 40.519 61.295 40.53 61.308 L 40.53 61.308 L 40.53 61.308 Z " fill="#919191" id="svg_13" fill-opacity="1"/></g><g opacity="0.6" id="svg_14" fill="#919191" fill-opacity="1"><path d=" M 32.518 56.331 C 31.488 56.331 30.65 55.493 30.65 54.463 L 30.65 49.709 C 30.65 48.679 31.488 47.841 32.518 47.841 C 33.549 47.841 34.387 48.678 34.387 49.709 L 34.387 54.463 C 34.387 55.493 33.549 56.331 32.518 56.331 Z  M 32.518 48.86 C 32.05 48.86 31.669 49.241 31.669 49.709 L 31.669 54.464 C 31.669 54.931 32.05 55.312 32.518 55.312 C 32.987 55.312 33.368 54.931 33.368 54.464 L 33.368 49.709 C 33.368 49.241 32.987 48.86 32.518 48.86 Z " fill="#919191" id="svg_15" fill-opacity="1"/></g><g opacity="0.6" id="svg_16" fill="#919191" fill-opacity="1"><path d=" M 43.897 48.758 L 33.368 48.758 L 33.368 48.249 C 33.368 46.712 34.065 45.348 35.344 44.363 L 34.767 43.393 C 34.44 42.672 34.573 42.016 35.063 41.742 C 35.289 41.615 35.552 41.59 35.8 41.673 C 36.11 41.775 36.379 42.037 36.537 42.391 L 37.093 43.417 C 37.603 43.243 38.175 43.177 38.604 43.177 C 38.72 43.177 39.541 43.185 40.202 43.406 L 40.763 42.398 C 40.902 42.085 41.135 41.85 41.417 41.757 C 41.584 41.702 41.844 41.671 42.143 41.838 C 42.648 42.119 42.803 42.723 42.527 43.34 L 41.92 44.362 C 43.199 45.347 43.896 46.71 43.896 48.248 L 43.896 48.758 L 43.897 48.758 L 43.897 48.758 Z  M 34.419 47.739 L 42.846 47.739 C 42.664 46.329 41.748 45.443 40.964 44.934 L 40.636 44.72 L 40.578 44.825 L 40.112 44.481 C 39.903 44.327 39.212 44.196 38.604 44.196 C 38.058 44.196 37.458 44.325 37.113 44.515 L 36.663 44.765 L 36.636 44.714 L 36.299 44.934 C 35.517 45.443 34.6 46.329 34.419 47.739 Z " fill="#919191" id="svg_17" fill-opacity="1"/></g><g opacity="0.6" id="svg_18" fill="#919191" fill-opacity="1"><path d=" M 44.746 56.331 C 43.716 56.331 42.878 55.493 42.878 54.463 L 42.878 49.709 C 42.878 48.679 43.716 47.841 44.746 47.841 C 45.777 47.841 46.614 48.678 46.614 49.709 L 46.614 54.463 C 46.614 55.493 45.777 56.331 44.746 56.331 Z  M 44.746 48.86 C 44.278 48.86 43.897 49.241 43.897 49.709 L 43.897 54.464 C 43.897 54.931 44.278 55.312 44.746 55.312 C 45.214 55.312 45.595 54.931 45.595 54.464 L 45.595 49.709 C 45.595 49.241 45.214 48.86 44.746 48.86 Z " fill="#919191" id="svg_19" fill-opacity="1"/></g><g opacity="0.6" id="svg_20" fill="#919191" fill-opacity="1"><ellipse vector-effect="non-scaling-stroke" cx="36.59437942504883" cy="46.478755950927734" rx="0.43204423785209656" ry="0.41166478395462036" fill="#919191" id="svg_21" fill-opacity="1"/></g><g opacity="0.6" id="svg_22" fill="#919191" fill-opacity="1"><ellipse vector-effect="non-scaling-stroke" cx="40.67026901245117" cy="46.478755950927734" rx="0.43204423785209656" ry="0.41166478395462036" fill="#919191" id="svg_23" fill-opacity="1"/></g></g></g></g></g></svg>