<svg xmlns="http://www.w3.org/2000/svg" xmlns:xlink="http://www.w3.org/1999/xlink" style="isolation:isolate" width="96" height="96"><rect id="backgroundrect" width="100%" height="100%" x="0" y="0" fill="none" stroke="none"/><defs><clipPath id="_clipPath_GSNvpXAXWfwW5WKrVJjXHOz0d2gjPFSl"><rect width="96" height="96" id="svg_1"/></clipPath></defs><g class="currentLayer" style=""><title>Layer 1</title><g clip-path="url(#_clipPath_GSNvpXAXWfwW5WKrVJjXHOz0d2gjPFSl)" id="svg_2" class="" fill="#919191" fill-opacity="1"><g id="svg_3" fill="#919191" fill-opacity="1"><g style="opacity:0.6;" id="svg_4" fill="#919191" fill-opacity="1"><g opacity="0.6" id="svg_5" fill="#919191" fill-opacity="1"><rect x="41.23899841308594" y="38.58399963378906" width="27.386999130249023" height="2" transform="matrix(0.942,0.335,-0.335,0.942,16.439,-16.118)" fill="#919191" id="svg_6" fill-opacity="1"/></g></g><path d=" M 59.594 71.998 C 57.704 71.998 56.002 71.34 54.798 70.143 C 53.686 69.037 53.073 67.528 53.073 65.895 C 53.073 62.021 56.408 58.258 60.667 57.33 C 61.278 57.196 61.893 57.126 62.493 57.123 C 62.497 57.123 62.5 57.123 62.503 57.123 C 63.307 57.123 64.86 57.677 66.945 58.509 L 67.058 58.554 L 67.058 36.465 C 67.058 35.087 65.817 33.432 64.402 32.925 L 44.713 26.151 C 44.1 25.929 43.547 25.951 43.19 26.203 C 43.079 26.282 42.992 26.377 42.926 26.482 L 42.926 55.154 C 42.926 59.029 39.591 62.792 35.332 63.719 C 34.721 63.853 34.106 63.923 33.506 63.926 C 33.491 63.926 33.476 63.926 33.462 63.926 C 31.572 63.926 29.871 63.268 28.667 62.071 C 27.555 60.965 26.942 59.456 26.942 57.823 C 26.942 53.949 30.277 50.186 34.535 49.258 C 35.147 49.124 35.762 49.054 36.363 49.051 C 36.366 49.051 36.369 49.051 36.373 49.051 C 37.18 49.051 38.629 49.608 40.721 50.443 L 40.721 50.998 L 40.721 28.258 L 40.721 27.307 C 40.721 26.14 41.189 25.167 42.04 24.569 C 42.937 23.938 44.154 23.827 45.378 24.265 L 65.064 31.039 C 67.31 31.843 69.059 34.225 69.059 36.466 L 69.059 63.226 C 69.059 67.101 65.724 70.864 61.466 71.791 C 60.854 71.925 60.238 71.995 59.639 71.998 C 59.624 71.998 59.608 71.998 59.594 71.998 Z  M 62.505 59.122 C 62.043 59.125 61.569 59.179 61.094 59.282 C 57.718 60.019 55.073 62.924 55.073 65.894 C 55.073 67.006 55.466 67.985 56.207 68.724 C 57.034 69.547 58.236 69.998 59.594 69.998 C 59.606 69.998 59.616 69.998 59.627 69.998 C 60.088 69.995 60.564 69.941 61.04 69.838 C 64.415 69.102 67.059 66.197 67.059 63.226 L 67.058 60.701 L 66.488 60.478 L 66.205 60.366 C 63.498 59.286 62.725 59.123 62.505 59.122 Z  M 36.373 51.051 C 35.913 51.054 35.437 51.108 34.961 51.211 C 31.586 51.948 28.941 54.853 28.941 57.823 C 28.941 58.935 29.334 59.914 30.076 60.653 C 30.909 61.481 32.148 61.934 33.495 61.926 C 33.955 61.923 34.431 61.869 34.907 61.766 C 38.282 61.03 40.721 58.125 40.721 55.154 L 40.721 52.654 L 40.354 52.406 L 40.087 52.3 C 37.372 51.216 36.594 51.052 36.373 51.051 Z " fill="#919191" id="svg_7" fill-opacity="1"/></g></g></g></svg>