<svg xmlns="http://www.w3.org/2000/svg" xmlns:xlink="http://www.w3.org/1999/xlink" style="isolation:isolate" width="96" height="96"><rect id="backgroundrect" width="100%" height="100%" x="0" y="0" fill="none" stroke="none"/><defs><clipPath id="_clipPath_1tTalIL32AZk5iSRrOC0wWx8AjwlbyHN"><rect width="96" height="96" id="svg_1"/></clipPath></defs><g class="currentLayer" style=""><title>Layer 1</title><g clip-path="url(#_clipPath_1tTalIL32AZk5iSRrOC0wWx8AjwlbyHN)" id="svg_2" class="" fill="#919191" fill-opacity="1"><g opacity="0" id="svg_3" fill="#919191" fill-opacity="1"><rect x="16" y="16" width="64" height="64" fill="#919191" id="svg_4" fill-opacity="1"/></g><g id="svg_5" fill="#919191" fill-opacity="1"><g opacity="0.2" id="svg_6" fill="#919191" fill-opacity="1"><circle vector-effect="non-scaling-stroke" cx="48" cy="48" r="24" fill="#919191" id="svg_7" fill-opacity="1"/></g><path d=" M 57.899 58.9 C 57.643 58.9 57.387 58.802 57.192 58.607 L 50.828 52.243 C 48.489 49.904 48.489 46.097 50.828 43.758 L 57.192 37.394 C 57.583 37.003 58.215 37.003 58.606 37.394 C 58.997 37.785 58.997 38.417 58.606 38.808 L 52.242 45.172 C 50.682 46.732 50.682 49.269 52.242 50.829 L 58.606 57.193 C 58.997 57.584 58.997 58.216 58.606 58.607 C 58.411 58.803 58.155 58.9 57.899 58.9 Z " fill="#919191" id="svg_8" fill-opacity="1"/><path d=" M 38.101 58.9 C 37.845 58.9 37.589 58.802 37.394 58.607 C 37.003 58.216 37.003 57.584 37.394 57.193 L 43.758 50.829 C 44.509 50.077 44.924 49.073 44.924 48.001 C 44.924 46.929 44.51 45.924 43.758 45.172 L 37.395 38.809 C 37.004 38.418 37.004 37.786 37.395 37.395 C 37.786 37.004 38.418 37.004 38.809 37.395 L 45.172 43.758 C 46.301 44.887 46.923 46.394 46.923 48.001 C 46.923 49.608 46.301 51.114 45.172 52.243 L 38.808 58.607 C 38.612 58.803 38.356 58.9 38.101 58.9 Z " fill="#919191" id="svg_9" fill-opacity="1"/></g></g></g></svg>