<svg xmlns="http://www.w3.org/2000/svg" xmlns:xlink="http://www.w3.org/1999/xlink" style="isolation: isolate;" width="96" height="96"><rect id="backgroundrect" width="100%" height="100%" x="0" y="0" fill="none" stroke="none"/><defs><clipPath id="_clipPath_mHTXtXt05KU2xZfLmTNKPJH8J5wkrCS0"><rect width="96" height="96" id="svg_1"/></clipPath></defs><g class="currentLayer" style=""><title>Layer 1</title><g clip-path="url(#_clipPath_mHTXtXt05KU2xZfLmTNKPJH8J5wkrCS0)" id="svg_2" class="selected" fill="#919191" fill-opacity="1"><g id="svg_3" fill="#919191" fill-opacity="1"><g id="svg_4" fill="#919191" fill-opacity="1"><path d=" M 59.963 71.741 L 50.146 71.741 L 50.146 69.741 L 59.963 69.741 C 61.638 69.741 63 68.379 63 66.704 L 63 26.778 C 63 25.103 61.638 23.741 59.963 23.741 L 36.037 23.741 C 34.362 23.741 33 25.103 33 26.778 L 33 66.704 C 33 68.379 34.362 69.741 36.037 69.741 L 45.891 69.741 L 45.891 71.741 L 36.037 71.741 C 33.26 71.741 31 69.481 31 66.704 L 31 26.778 C 31 24.001 33.26 21.741 36.037 21.741 L 59.963 21.741 C 62.74 21.741 65 24.001 65 26.778 L 65 66.704 C 65 69.481 62.74 71.741 59.963 71.741 Z " fill="#919191" id="svg_5" fill-opacity="1"/><g style="opacity:0.6;" id="svg_6" fill="#919191" fill-opacity="1"><g opacity="0.6" id="svg_7" fill="#919191" fill-opacity="1"><path d=" M 57.999 64.674 L 54.755 64.674 L 54.755 62.674 L 57.999 62.674 C 58.551 62.674 58.999 62.226 58.999 61.674 L 58.999 31.674 C 58.999 31.123 58.551 30.674 57.999 30.674 L 37.999 30.674 C 37.448 30.674 36.999 31.123 36.999 31.674 L 36.999 61.674 C 36.999 62.226 37.448 62.674 37.999 62.674 L 41.284 62.674 L 41.284 64.674 L 37.999 64.674 C 36.345 64.674 34.999 63.328 34.999 61.674 L 34.999 31.674 C 34.999 30.02 36.345 28.674 37.999 28.674 L 57.999 28.674 C 59.653 28.674 60.999 30.02 60.999 31.674 L 60.999 61.674 C 60.999 63.328 59.653 64.674 57.999 64.674 Z " fill="#919191" id="svg_8" fill-opacity="1"/></g></g></g><g id="svg_9" fill="#919191" fill-opacity="1"><path d=" M 48 61.157 C 47.448 61.157 47 60.71 47 60.157 L 47 44.724 C 47 44.172 47.448 43.724 48 43.724 C 48.552 43.724 49 44.172 49 44.724 L 49 60.157 C 49 60.709 48.552 61.157 48 61.157 Z " fill="#919191" id="svg_10" fill-opacity="1"/><path d=" M 54.468 62.157 L 48 71.673 L 41.532 62.157 L 54.468 62.157 Z  M 56.246 60.157 L 39.754 60.157 C 38.654 60.157 38.26 60.901 38.878 61.811 L 46.876 73.577 C 47.185 74.032 47.593 74.259 48 74.259 C 48.407 74.259 48.815 74.032 49.124 73.577 L 57.122 61.811 C 57.74 60.901 57.346 60.157 56.246 60.157 L 56.246 60.157 Z " fill="#919191" id="svg_11" fill-opacity="1"/></g></g><g opacity="0" id="svg_12" fill="#919191" fill-opacity="1"><rect x="0" y="0" width="64" height="64" fill="#919191" id="svg_13" fill-opacity="1"/></g></g></g></svg>