<svg xmlns="http://www.w3.org/2000/svg" xmlns:xlink="http://www.w3.org/1999/xlink" style="isolation:isolate" width="96" height="96"><rect id="backgroundrect" width="100%" height="100%" x="0" y="0" fill="none" stroke="none"/><defs><clipPath id="_clipPath_B2X6TGMldMHF2FCYoEMiiTP5vlKjklcr"><rect width="96" height="96" id="svg_1"/></clipPath></defs><g class="currentLayer" style=""><title>Layer 1</title><g clip-path="url(#_clipPath_B2X6TGMldMHF2FCYoEMiiTP5vlKjklcr)" id="svg_2" class="selected" fill="#919191" fill-opacity="1"><path d=" M 60.522 68.819 C 59.992 68.819 59.414 68.587 58.756 68.109 L 49.938 61.701 C 48.948 60.982 47.049 60.981 46.059 61.701 L 37.241 68.109 C 35.953 69.046 34.825 69.013 34.239 68.208 C 33.843 67.663 33.81 66.872 34.14 65.856 L 37.51 55.489 C 37.905 54.274 37.344 52.551 36.311 51.801 L 27.491 45.392 C 26.144 44.413 26.078 43.538 26.261 42.977 C 26.443 42.415 27.011 41.747 28.676 41.747 L 39.575 41.747 C 40.852 41.747 42.319 40.682 42.713 39.467 L 46.082 29.098 C 46.597 27.514 47.409 27.181 47.999 27.181 C 48.589 27.181 49.401 27.514 49.915 29.098 L 53.285 39.467 C 53.68 40.682 55.146 41.747 56.424 41.747 L 67.325 41.747 C 68.99 41.747 69.557 42.416 69.74 42.977 C 69.922 43.538 69.856 44.413 68.51 45.392 L 59.69 51.8 C 58.657 52.551 58.096 54.276 58.491 55.49 L 61.859 65.857 C 62.188 66.873 62.155 67.663 61.759 68.208 C 61.473 68.602 61.033 68.819 60.522 68.819 Z  M 47.999 59.135 C 49.166 59.135 50.272 59.472 51.114 60.084 L 59.932 66.492 C 59.945 66.501 59.957 66.51 59.969 66.518 C 59.965 66.503 59.96 66.489 59.955 66.474 L 56.587 56.107 C 55.921 54.053 56.767 51.451 58.513 50.182 L 67.333 43.774 C 67.346 43.765 67.357 43.756 67.369 43.747 C 67.354 43.747 67.34 43.747 67.324 43.747 L 56.424 43.747 C 54.265 43.747 52.051 42.139 51.383 40.085 L 48.013 29.716 C 48.008 29.701 48.004 29.687 47.999 29.673 C 47.994 29.687 47.99 29.702 47.985 29.716 L 44.616 40.085 C 43.949 42.138 41.735 43.747 39.575 43.747 L 28.676 43.747 C 28.66 43.747 28.646 43.747 28.631 43.747 C 28.643 43.756 28.655 43.765 28.668 43.774 L 37.488 50.182 C 39.235 51.451 40.08 54.054 39.413 56.106 L 36.043 66.474 C 36.038 66.489 36.034 66.503 36.029 66.517 C 36.041 66.509 36.053 66.5 36.065 66.492 L 44.883 60.084 C 45.726 59.472 46.832 59.135 47.999 59.135 Z " fill="#919191" id="svg_3" fill-opacity="1"/></g></g></svg>