<svg xmlns="http://www.w3.org/2000/svg" xmlns:xlink="http://www.w3.org/1999/xlink" style="isolation:isolate" width="96" height="96"><rect id="backgroundrect" width="100%" height="100%" x="0" y="0" fill="none" stroke="none"/><defs><clipPath id="_clipPath_67qrA9gNcIupnHPe8OaJIeOqa5y5HkHI"><rect width="96" height="96" id="svg_1"/></clipPath></defs><g class="currentLayer" style=""><title>Layer 1</title><g clip-path="url(#_clipPath_67qrA9gNcIupnHPe8OaJIeOqa5y5HkHI)" id="svg_2" class="selected" fill="#919191" fill-opacity="1"><g opacity="0" id="svg_3" fill="#919191" fill-opacity="1"><rect x="0" y="0" width="64" height="64" fill="#919191" id="svg_4" fill-opacity="1"/></g><g id="svg_5" fill="#919191" fill-opacity="1"><path d=" M 64.341 68.945 L 31.657 68.945 C 28.9 68.945 26.657 66.702 26.657 63.945 L 26.657 49.14 C 26.657 48.959 26.506 48.807 26.327 48.807 L 22.999 48.807 C 21.903 48.807 21.571 48.094 21.495 47.875 C 21.179 46.96 21.844 45.873 23.528 44.55 L 44.236 28.287 C 45.248 27.492 46.585 27.055 48 27.055 C 49.415 27.055 50.752 27.493 51.764 28.288 L 72.472 44.551 C 74.156 45.874 74.821 46.962 74.504 47.876 C 74.427 48.094 74.096 48.807 72.999 48.807 L 69.67 48.807 C 69.491 48.807 69.341 48.96 69.341 49.14 L 69.341 63.945 C 69.341 66.702 67.098 68.945 64.341 68.945 Z  M 26.328 46.807 C 27.613 46.807 28.658 47.854 28.658 49.14 L 28.658 63.945 C 28.658 65.599 30.004 66.945 31.658 66.945 L 64.342 66.945 C 65.996 66.945 67.342 65.599 67.342 63.945 L 67.342 49.14 C 67.342 47.853 68.387 46.807 69.671 46.807 L 72.022 46.807 C 71.826 46.612 71.569 46.383 71.237 46.122 L 50.527 29.86 C 49.222 28.835 46.774 28.835 45.47 29.86 L 24.763 46.123 C 24.432 46.383 24.175 46.612 23.979 46.806 L 26.328 46.807 Z " fill="#919191" id="svg_6" fill-opacity="1"/><g opacity="0.6" id="svg_7" fill="#919191" fill-opacity="1"><path d=" M 47.999 60.167 C 43.489 60.167 39.819 56.497 39.819 51.986 C 39.819 47.476 43.488 43.806 47.999 43.806 C 52.51 43.806 56.179 47.475 56.179 51.986 C 56.179 57.033 53.045 60.167 47.999 60.167 Z  M 47.999 45.807 C 44.591 45.807 41.819 48.579 41.819 51.987 C 41.819 55.395 44.591 58.168 47.999 58.168 C 50.307 58.168 54.179 57.365 54.179 51.987 C 54.179 48.579 51.406 45.807 47.999 45.807 Z " fill="#919191" id="svg_8" fill-opacity="1"/></g></g></g></g></svg>