<svg xmlns="http://www.w3.org/2000/svg" xmlns:xlink="http://www.w3.org/1999/xlink" style="isolation:isolate" width="96" height="96"><rect id="backgroundrect" width="100%" height="100%" x="0" y="0" fill="none" stroke="none"/><defs><clipPath id="_clipPath_mKurs4wOJhSCYO0cJFpvl2q7ZENsM1tR"><rect width="96" height="96" id="svg_1"/></clipPath></defs><g class="currentLayer" style=""><title>Layer 1</title><g clip-path="url(#_clipPath_mKurs4wOJhSCYO0cJFpvl2q7ZENsM1tR)" id="svg_2" class="selected" fill="#919191" fill-opacity="1"><g id="svg_3" fill="#919191" fill-opacity="1"><g opacity="0.2" id="svg_4" fill="#919191" fill-opacity="1"><circle vector-effect="non-scaling-stroke" cx="48" cy="48" r="24" fill="#919191" id="svg_5" fill-opacity="1"/></g><path d=" M 44.904 61 C 44.648 61 44.392 60.902 44.197 60.707 C 43.806 60.316 43.806 59.684 44.197 59.293 L 53.37 50.121 C 54.54 48.951 54.54 47.048 53.37 45.878 L 44.199 36.707 C 43.808 36.316 43.808 35.684 44.199 35.293 C 44.59 34.902 45.222 34.902 45.613 35.293 L 54.784 44.464 C 56.733 46.413 56.733 49.586 54.784 51.535 L 45.611 60.707 C 45.416 60.902 45.16 61 44.904 61 Z " fill="#919191" id="svg_6" fill-opacity="1"/></g><g opacity="0" id="svg_7" fill="#919191" fill-opacity="1"><rect x="0" y="0" width="64" height="64" fill="#919191" id="svg_8" fill-opacity="1"/></g></g></g></svg>