<svg xmlns="http://www.w3.org/2000/svg" xmlns:xlink="http://www.w3.org/1999/xlink" style="isolation:isolate" width="96" height="96"><rect id="backgroundrect" width="100%" height="100%" x="0" y="0" fill="none" stroke="none"/><defs><clipPath id="_clipPath_FG8VKz60XTQ1hKpuDtvnGFiTQeDgsSzt"><rect width="96" height="96" id="svg_1"/></clipPath></defs><g class="currentLayer" style=""><title>Layer 1</title><g clip-path="url(#_clipPath_FG8VKz60XTQ1hKpuDtvnGFiTQeDgsSzt)" id="svg_2" class="" fill="#919191" fill-opacity="1"><g id="svg_3" fill="#919191" fill-opacity="1"><g opacity="0.2" id="svg_4" fill="#919191" fill-opacity="1"><circle vector-effect="non-scaling-stroke" cx="48" cy="48" r="24" fill="#919191" id="svg_5" fill-opacity="1"/></g><path d=" M 51.094 60.999 C 50.838 60.999 50.582 60.901 50.387 60.706 L 41.216 51.535 C 40.275 50.594 39.757 49.338 39.757 47.999 C 39.757 46.66 40.276 45.405 41.217 44.464 L 50.389 35.292 C 50.78 34.901 51.412 34.901 51.803 35.292 C 52.194 35.683 52.194 36.315 51.803 36.706 L 42.631 45.878 C 41.461 47.047 41.461 48.951 42.631 50.121 L 51.802 59.292 C 52.193 59.683 52.193 60.315 51.802 60.706 C 51.605 60.901 51.35 60.999 51.094 60.999 Z " fill="#919191" id="svg_6" fill-opacity="1"/></g></g></g></svg>