<svg xmlns="http://www.w3.org/2000/svg" xmlns:xlink="http://www.w3.org/1999/xlink" style="isolation:isolate" width="96" height="96"><rect id="backgroundrect" width="100%" height="100%" x="0" y="0" fill="none" stroke="none"/><defs><clipPath id="_clipPath_1FGSaZ57zeQsBuzqeWuWTD0sDFzdIcTB"><rect width="96" height="96" id="svg_1"/></clipPath></defs><g class="currentLayer" style=""><title>Layer 1</title><g clip-path="url(#_clipPath_1FGSaZ57zeQsBuzqeWuWTD0sDFzdIcTB)" id="svg_2" class="" fill="#919191" fill-opacity="1"><g id="svg_3" fill="#919191" fill-opacity="1"><g opacity="0.2" id="svg_4" fill="#919191" fill-opacity="1"><circle vector-effect="non-scaling-stroke" cx="48" cy="48" r="24" fill="#919191" id="svg_5" fill-opacity="1"/></g><path d=" M 60 52.097 C 59.744 52.097 59.488 51.999 59.293 51.804 L 50.121 42.631 C 49.558 42.068 48.804 41.757 47.999 41.757 L 47.999 41.757 C 47.195 41.757 46.441 42.067 45.878 42.631 L 36.707 51.803 C 36.316 52.194 35.684 52.194 35.293 51.803 C 34.902 51.412 34.902 50.78 35.293 50.389 L 44.464 41.217 C 45.405 40.276 46.661 39.758 47.999 39.758 C 47.999 39.758 47.999 39.758 47.999 39.758 C 49.338 39.758 50.593 40.277 51.534 41.218 L 60.706 50.391 C 61.097 50.782 61.097 51.414 60.706 51.805 C 60.512 51.999 60.256 52.097 60 52.097 Z " fill="#919191" id="svg_6" fill-opacity="1"/></g><g opacity="0" id="svg_7" fill="#919191" fill-opacity="1"><rect x="0" y="0" width="64" height="64" fill="#919191" id="svg_8" fill-opacity="1"/></g></g></g></svg>