<svg xmlns="http://www.w3.org/2000/svg" xmlns:xlink="http://www.w3.org/1999/xlink" style="isolation:isolate" width="96" height="96"><rect id="backgroundrect" width="100%" height="100%" x="0" y="0" fill="none" stroke="none"/><defs><clipPath id="_clipPath_HGJupcR8jA6qit2lCbmsEzBK0WdrrvWX"><rect width="96" height="96" id="svg_1"/></clipPath></defs><g class="currentLayer" style=""><title>Layer 1</title><g clip-path="url(#_clipPath_HGJupcR8jA6qit2lCbmsEzBK0WdrrvWX)" id="svg_2" class="" fill="#919191" fill-opacity="1"><g opacity="0" id="svg_3" fill="#919191" fill-opacity="1"><rect x="0" y="0" width="64" height="64" fill="#919191" id="svg_4" fill-opacity="1"/></g><g id="svg_5" fill="#919191" fill-opacity="1"><path d=" M 63.188 63 L 32.813 63 C 31.813 63 31 62.187 31 61.187 L 31 30.813 C 31 29.813 31.813 29 32.813 29 L 63.188 29 C 64.187 29 65 29.813 65 30.813 L 65 61.188 C 65 62.187 64.187 63 63.188 63 Z  M 33 61 L 63 61 L 63 31 L 33 31 L 33 61 Z " fill="#919191" id="svg_6" fill-opacity="1"/><path d=" M 50.509 58.06 C 50.113 58.06 49.802 57.952 49.716 57.919 C 47.093 56.898 45.152 54.665 44.534 52.056 C 42.224 53.351 39.391 53.503 36.858 52.42 C 36.583 52.337 36.042 52.107 35.742 51.525 C 35.56 51.172 35.418 50.589 35.771 49.808 C 36.262 48.714 37.056 47.712 38.067 46.914 C 38.488 46.584 38.948 46.294 39.437 46.049 C 38.444 45.137 37.64 43.943 37.155 42.615 C 36.447 40.674 36.48 38.698 37.248 37.05 C 37.318 36.905 38.147 35.127 38.147 35.127 C 38.744 34.057 39.803 33.679 40.814 34.121 L 40.814 34.121 C 40.814 34.121 44.306 35.541 44.392 35.578 C 46.766 36.686 48.577 38.968 49.256 41.553 C 51.615 40.305 54.442 40.041 56.842 40.914 C 56.891 40.932 56.963 40.958 60.438 42.532 C 61.164 42.82 61.459 43.274 61.581 43.608 C 61.694 43.921 61.759 44.415 61.449 45.023 C 61.322 45.381 60.781 46.909 60.751 46.986 C 59.527 49.945 55.893 51.879 52.533 51.676 C 52.69 52.195 52.792 52.722 52.835 53.247 C 52.947 54.534 52.608 55.981 52.284 56.829 C 52.099 57.32 51.762 57.691 51.309 57.894 C 51.031 58.019 50.754 58.06 50.509 58.06 Z  M 46.465 47.701 L 46.447 50.152 C 46.443 50.357 46.447 50.562 46.465 50.766 C 46.664 53.002 48.19 55.003 50.366 55.898 C 50.597 55.215 50.792 54.219 50.722 53.425 C 50.649 52.532 50.339 51.628 49.826 50.804 L 48.192 48.186 L 51.089 49.249 C 53.905 50.282 57.717 48.771 58.783 46.196 C 58.817 46.101 59.262 44.843 59.421 44.397 C 58.748 44.092 56.275 42.973 56.077 42.889 C 53.908 42.1 51.1 42.602 49.127 44.151 L 47.541 45.395 L 47.416 43.384 C 47.26 40.886 45.697 38.527 43.525 37.512 C 43.418 37.468 40.468 36.268 40.042 36.095 C 39.876 36.432 39.194 37.893 39.157 37.968 C 38.638 39.08 38.63 40.481 39.144 41.889 C 39.718 43.461 40.857 44.769 42.193 45.389 L 45.052 46.716 L 41.972 47.385 C 41.001 47.596 40.103 48.01 39.374 48.58 C 38.686 49.123 38.137 49.788 37.78 50.51 C 39.961 51.403 42.508 51.077 44.311 49.663 C 44.427 49.573 44.532 49.475 44.637 49.379 L 46.465 47.701 Z " fill="#919191" id="svg_7" fill-opacity="1"/><g opacity="0.6" id="svg_8" fill="#919191" fill-opacity="1"><path d=" M 66.125 72 L 29.875 72 C 27.738 72 26 70.262 26 68.125 L 26 27.875 C 26 25.738 27.738 24 29.875 24 L 66.125 24 C 68.262 24 70 25.738 70 27.875 L 70 68.125 C 70 70.262 68.262 72 66.125 72 Z  M 29.875 26 C 28.841 26 28 26.841 28 27.875 L 28 68.125 C 28 69.159 28.841 70 29.875 70 L 66.125 70 C 67.159 70 68 69.159 68 68.125 L 68 27.875 C 68 26.841 67.159 26 66.125 26 L 29.875 26 Z " fill="#919191" id="svg_9" fill-opacity="1"/></g></g></g></g></svg>