<svg xmlns="http://www.w3.org/2000/svg" xmlns:xlink="http://www.w3.org/1999/xlink" style="isolation:isolate" width="96" height="96"><rect id="backgroundrect" width="100%" height="100%" x="0" y="0" fill="none" stroke="none"/><defs><clipPath id="_clipPath_XFnVmqPs3LAxZeuIK6PBDfYW4mcTgfo4"><rect width="96" height="96" id="svg_1"/></clipPath></defs><g class="currentLayer" style=""><title>Layer 1</title><g clip-path="url(#_clipPath_XFnVmqPs3LAxZeuIK6PBDfYW4mcTgfo4)" id="svg_2" class="selected" fill="#919191" fill-opacity="1"><g opacity="0" id="svg_3" fill="#919191" fill-opacity="1"><rect x="0" y="0" width="64" height="64" fill="#919191" id="svg_4" fill-opacity="1"/></g><g id="svg_5" fill="#919191" fill-opacity="1"><g opacity="0.2" id="svg_6" fill="#919191" fill-opacity="1"><circle vector-effect="non-scaling-stroke" cx="48" cy="48" r="30" fill="#919191" id="svg_7" fill-opacity="1"/></g><g style="opacity:0.6;" id="svg_8" fill="#919191" fill-opacity="1"><g style="opacity:0.6;" id="svg_9" fill="#919191" fill-opacity="1"><g opacity="0.6" id="svg_10" fill="#919191" fill-opacity="1"><path d=" M 37.916 58 C 37.916 59.1 38.816 60 39.916 60 L 42.916 60 C 44.016 60 44.916 59.1 44.916 58 L 44.916 38 C 44.916 36.9 44.016 36 42.916 36 L 39.916 36 C 38.816 36 37.916 36.9 37.916 38 L 37.916 58 Z " fill="#919191" id="svg_11" fill-opacity="1"/></g></g><g style="opacity:0.6;" id="svg_12" fill="#919191" fill-opacity="1"><g opacity="0.6" id="svg_13" fill="#919191" fill-opacity="1"><path d=" M 52.916 36 C 51.816 36 50.916 36.9 50.916 38 L 50.916 58 C 50.916 59.1 51.816 60 52.916 60 L 55.916 60 C 57.016 60 57.916 59.1 57.916 58 L 57.916 38 C 57.916 36.9 57.016 36 55.916 36 L 52.916 36 Z " fill="#919191" id="svg_14" fill-opacity="1"/></g></g></g></g></g></g></svg>