<svg xmlns="http://www.w3.org/2000/svg" xmlns:xlink="http://www.w3.org/1999/xlink" style="isolation:isolate" width="96" height="96"><rect id="backgroundrect" width="100%" height="100%" x="0" y="0" fill="none" stroke="none"/><defs><clipPath id="_clipPath_HojHgbn9VKzxIxyGzN7AwsT9HxC9Qish"><rect width="96" height="96" id="svg_1"/></clipPath></defs><g class="currentLayer" style=""><title>Layer 1</title><g clip-path="url(#_clipPath_HojHgbn9VKzxIxyGzN7AwsT9HxC9Qish)" id="svg_2" class="" fill="#919191" fill-opacity="1"><g id="svg_3" fill="#919191" fill-opacity="1"><g id="svg_4" fill="#919191" fill-opacity="1"><g opacity="0" id="svg_5" fill="#919191" fill-opacity="1"><rect x="16" y="16" width="64" height="64" fill="#919191" id="svg_6" fill-opacity="1"/></g><g opacity="0" id="svg_7" fill="#919191" fill-opacity="1"><path d=" M 81 81 L 15 81 L 15 15 L 81 15 L 81 81 Z  M 17 79 L 79 79 L 79 17 L 17 17 L 17 79 Z " fill="#919191" id="svg_8" fill-opacity="1"/></g></g><g id="svg_9" fill="#919191" fill-opacity="1"><path d=" M 62 73 L 34 73 C 31.243 73 29 70.757 29 68 L 29 30 C 29 27.243 31.243 25 34 25 L 50.195 25 C 52.664 25 55.992 26.34 57.772 28.051 L 61.655 31.783 C 63.236 33.304 65.012 34.997 65.604 35.548 C 66.708 36.575 67 39.748 67 41.283 L 67 68 C 67 70.757 64.757 73 62 73 Z  M 34 27 C 32.346 27 31 28.346 31 30 L 31 68 C 31 69.654 32.346 71 34 71 L 62 71 C 63.654 71 65 69.654 65 68 L 65 41.282 C 65 39.044 64.5 37.306 64.232 37.002 C 63.647 36.458 61.859 34.754 60.268 33.225 L 56.385 29.494 C 54.98 28.142 52.146 27 50.195 27 L 34 27 Z " fill="#919191" id="svg_10" fill-opacity="1"/></g><g opacity="0.6" id="svg_11" fill="#919191" fill-opacity="1"><path d=" M 34.839 44.809 C 34.287 44.809 33.839 44.361 33.839 43.809 L 33.839 32.809 C 33.839 32.257 34.287 31.809 34.839 31.809 C 35.391 31.809 35.839 32.257 35.839 32.809 L 35.839 43.809 C 35.839 44.361 35.392 44.809 34.839 44.809 Z " fill="#919191" id="svg_12" fill-opacity="1"/></g><g opacity="0.6" id="svg_13" fill="#919191" fill-opacity="1"><path d=" M 39.779 44.809 C 39.227 44.809 38.779 44.361 38.779 43.809 L 38.779 32.809 C 38.779 32.257 39.227 31.809 39.779 31.809 C 40.331 31.809 40.779 32.257 40.779 32.809 L 40.779 43.809 C 40.779 44.361 40.332 44.809 39.779 44.809 Z " fill="#919191" id="svg_14" fill-opacity="1"/></g><g opacity="0.6" id="svg_15" fill="#919191" fill-opacity="1"><path d=" M 44.72 44.809 C 44.168 44.809 43.72 44.361 43.72 43.809 L 43.72 32.809 C 43.72 32.257 44.168 31.809 44.72 31.809 C 45.272 31.809 45.72 32.257 45.72 32.809 L 45.72 43.809 C 45.72 44.361 45.272 44.809 44.72 44.809 Z " fill="#919191" id="svg_16" fill-opacity="1"/></g><g opacity="0.6" id="svg_17" fill="#919191" fill-opacity="1"><path d=" M 49.66 44.809 C 49.107 44.809 48.66 44.361 48.66 43.809 L 48.66 32.809 C 48.66 32.257 49.107 31.809 49.66 31.809 C 50.213 31.809 50.66 32.257 50.66 32.809 L 50.66 43.809 C 50.66 44.361 50.213 44.809 49.66 44.809 Z " fill="#919191" id="svg_18" fill-opacity="1"/></g><g opacity="0.6" id="svg_19" fill="#919191" fill-opacity="1"><path d=" M 54.6 44.809 C 54.047 44.809 53.6 44.361 53.6 43.809 L 53.6 32.809 C 53.6 32.257 54.047 31.809 54.6 31.809 C 55.153 31.809 55.6 32.257 55.6 32.809 L 55.6 43.809 C 55.6 44.361 55.152 44.809 54.6 44.809 Z " fill="#919191" id="svg_20" fill-opacity="1"/></g></g></g></g></svg>