<svg xmlns="http://www.w3.org/2000/svg" xmlns:xlink="http://www.w3.org/1999/xlink" style="isolation:isolate" width="96" height="96"><rect id="backgroundrect" width="100%" height="100%" x="0" y="0" fill="none" stroke="none"/><defs><clipPath id="_clipPath_BFZhV1PLkKdGZSEvIzvdEUUW6AQebP8N"><rect width="96" height="96" id="svg_1"/></clipPath></defs><g class="currentLayer" style=""><title>Layer 1</title><g clip-path="url(#_clipPath_BFZhV1PLkKdGZSEvIzvdEUUW6AQebP8N)" id="svg_2" class="" fill="#919191" fill-opacity="1"><g opacity="0" id="svg_3" fill="#919191" fill-opacity="1"><rect x="0" y="0" width="64" height="64" fill="#919191" id="svg_4" fill-opacity="1"/></g><g id="svg_5" fill="#919191" fill-opacity="1"><path d=" M 48 72.61 C 47.116 72.61 46.232 72.382 45.444 71.927 L 28.556 62.177 C 26.979 61.268 26 59.571 26 57.75 L 26 38.25 C 26 36.429 26.979 34.732 28.556 33.822 L 45.444 24.072 C 47.02 23.162 48.979 23.162 50.557 24.072 L 67.444 33.822 C 69.021 34.732 70 36.429 70 38.25 L 70 57.75 C 70 59.571 69.021 61.268 67.443 62.178 L 50.556 71.928 C 49.768 72.383 48.884 72.61 48 72.61 Z  M 48 25.389 C 47.462 25.389 46.924 25.528 46.444 25.805 L 29.556 35.555 C 28.596 36.108 28 37.141 28 38.25 L 28 57.75 C 28 58.858 28.596 59.892 29.556 60.445 L 46.444 70.195 C 47.404 70.75 48.598 70.75 49.557 70.195 L 66.444 60.445 C 67.403 59.892 68 58.858 68 57.75 L 68 38.25 C 68 37.142 67.403 36.109 66.443 35.555 L 49.556 25.805 C 49.076 25.527 48.538 25.389 48 25.389 Z " fill="#919191" id="svg_6" fill-opacity="1"/><g id="svg_7" fill="#919191" fill-opacity="1"><path d=" M 45.439 60.014 L 44.722 58.697 C 44.755 58.678 48.042 56.847 48.042 54.114 C 48.042 52.534 46.962 51.187 45.82 49.76 C 44.547 48.172 43.104 46.371 43.104 44.003 C 43.104 35.452 53.871 32.875 54.33 32.77 L 56.21 32.337 L 55.115 33.926 C 55.094 33.957 52.995 37.041 52.938 40.108 L 51.438 40.081 C 51.475 38.071 52.232 36.123 52.893 34.791 C 50.005 35.861 44.603 38.587 44.603 44.002 C 44.603 45.843 45.762 47.29 46.989 48.822 C 48.243 50.387 49.541 52.007 49.541 54.113 C 49.542 57.743 45.606 59.923 45.439 60.014 Z " fill="#919191" id="svg_8" fill-opacity="1"/><path d=" M 51.125 47.034 L 49.83 46.275 C 50.96 44.349 53.809 42.857 55.351 42.158 C 54.277 41.737 53.474 41.01 53.032 40.537 C 51.944 41.003 49.278 42.301 48.211 44.237 L 46.898 43.513 C 48.523 40.564 52.818 38.998 53 38.933 L 53.858 39.196 C 53.873 39.216 55.488 41.361 57.688 40.929 C 58.804 40.708 59.9 40.387 60.789 40.093 L 62.838 39.336 L 63.392 40.73 C 63.331 40.756 62.479 41.117 61.248 41.523 L 56.9 43.132 C 55.658 43.601 52.188 45.22 51.125 47.034 Z " fill="#919191" id="svg_9" fill-opacity="1"/><path d=" M 37.123 62.25 L 36.974 60.761 C 37.938 60.599 38.851 60.42 39.714 60.226 C 41.187 59.671 42.497 58.691 43.533 57.344 C 45.229 55.139 45.977 52.196 45.439 49.844 L 46.901 49.51 C 47.545 52.323 46.71 55.674 44.722 58.258 C 44.549 58.483 44.37 58.698 44.184 58.905 C 48.793 57.125 51.053 54.553 51.053 51.13 C 51.053 49.416 50.043 48.347 48.874 47.109 C 47.581 45.739 46.115 44.188 46.115 41.578 C 46.115 36.955 50.772 34.354 50.97 34.245 L 51.692 35.56 C 51.651 35.582 47.615 37.851 47.615 41.577 C 47.615 43.59 48.757 44.798 49.965 46.077 C 51.237 47.424 52.554 48.818 52.554 51.128 C 52.554 58.08 44.896 60.655 40.008 61.716 C 39.091 62.035 38.124 62.216 37.123 62.25 Z " fill="#919191" id="svg_10" fill-opacity="1"/></g><g opacity="0.2" id="svg_11" fill="#919191" fill-opacity="1"><path d=" M 47.971 49.66 L 27.697 38.051 C 27.218 37.777 27.052 37.166 27.326 36.686 C 27.6 36.207 28.212 36.04 28.691 36.315 L 47.946 47.34 L 66.71 36.037 C 67.181 35.751 67.797 35.904 68.082 36.377 C 68.367 36.85 68.215 37.465 67.741 37.75 L 47.971 49.66 Z " fill="#919191" id="svg_12" fill-opacity="1"/></g></g></g></g></svg>