<svg xmlns="http://www.w3.org/2000/svg" xmlns:xlink="http://www.w3.org/1999/xlink" style="isolation:isolate" width="96" height="96"><rect id="backgroundrect" width="100%" height="100%" x="0" y="0" fill="none" stroke="none"/><defs><clipPath id="_clipPath_VKp5kCFcWQuei4WAaufhRbaqsr28zcw5"><rect width="96" height="96" id="svg_1"/></clipPath></defs><g class="currentLayer" style=""><title>Layer 1</title><g clip-path="url(#_clipPath_VKp5kCFcWQuei4WAaufhRbaqsr28zcw5)" id="svg_2" class="" fill="#919191" fill-opacity="1"><g id="svg_3" fill="#919191" fill-opacity="1"><g style="opacity:0.6;" id="svg_4" fill="#919191" fill-opacity="1"><g opacity="0.6" id="svg_5" fill="#919191" fill-opacity="1"><path d=" M 63.907 72 L 32.092 72 C 29.836 72 28 70.164 28 67.907 L 28 28.092 C 28 25.836 29.836 24 32.092 24 L 51.951 24 C 53.917 24 56.546 25.091 57.934 26.484 L 65.525 34.104 C 66.913 35.496 68 38.127 68 40.092 L 68 67.907 C 68 70.164 66.164 72 63.907 72 Z  M 32.092 26 C 30.938 26 30 26.938 30 28.092 L 30 67.907 C 30 69.062 30.938 70 32.092 70 L 63.907 70 C 65.062 70 66 69.062 66 67.907 L 66 40.092 C 66 38.665 65.116 36.526 64.109 35.515 L 56.518 27.896 C 55.511 26.886 53.377 26 51.951 26 L 32.092 26 Z " fill="#919191" id="svg_6" fill-opacity="1"/></g></g><path d=" M 56.865 37 L 67.044 37 L 55.044 25 L 55.044 34.988 C 55.044 35.913 55.922 37 56.865 37 Z " fill="#919191" id="svg_7" fill-opacity="1"/><g id="svg_8" fill="#919191" fill-opacity="1"><rect x="37.08300018310547" y="42" width="22" height="2" fill="#919191" id="svg_9" fill-opacity="1"/><rect x="37.08300018310547" y="51" width="22" height="2" fill="#919191" id="svg_10" fill-opacity="1"/><rect x="37.08300018310547" y="60" width="22" height="2" fill="#919191" id="svg_11" fill-opacity="1"/></g></g></g></g></svg>